<?xml version="1.0" encoding="UTF-8"?>
<svg id="Layer_2" data-name="Layer 2" xmlns="http://www.w3.org/2000/svg" viewBox="0 0 217.94 161.48">
  <defs>
    <style>
      .cls-1 {
        fill: #444342;
      }
    </style>
  </defs>
  <g id="Layer_1-2" data-name="Layer 1">
    <g>
      <path d="M105.47,0h-2.27l-16.35,37.46h6.14l7.82-17.78,7.62,17.78h13.04L105.47,0ZM62.4,89.35c-.94.79-3,1.43-6.2,1.93v1.83h11.01v-10.36c-1.72,3.18-3.33,5.38-4.81,6.6ZM144.55,87.1c-2.11-1.82-4.46-5.78-7.05-11.88l-8.35-19.73c-1.01.83-2.09,1.78-3.25,2.84-.38.34-1.78,1.7-6.64,6.63l4.35,10.26c1.82,4.26,2.73,7.38,2.73,9.36,0,1.48-.65,2.74-1.94,3.77-1.3,1.03-3.78,1.64-7.46,1.82v2.49h36.43v-2.49c-3.77-.23-6.71-1.25-8.82-3.07ZM79.66,43.12l-7.04,16.3v37.24h12.23v-10.41l3.54,3.49v-3.3l-3.71-.26c-5.24-.37-6.45-1.18-6.49-1.21-.35-.27-.47-.46-.49-.53,0-.54.2-2.24,1.99-6.35l5.16-11.87v-7.85c0-.44,0-.86.01-1.27,0-.4.01-.78.03-1.14.07-2.91.31-4.9.72-5.98.51-1.35,1.43-2.37,2.74-3.05.2-.1.39-.2.59-.29,1.58-.73,3.21-1.12,4.88-1.16l1.03-2.36h-15.19ZM128.27,43.12h-17.94v2.35h1.97c2.12,0,3.63.37,4.52,1.12.9.74,1.34,1.59,1.34,2.57,0,1.27-.57,2.75-1.72,4.44-.31.46-.69.97-1.15,1.54-.47.59-1.03,1.25-1.66,1.96-1.26,1.43-2.83,3.08-4.7,4.98-1.22,1.23-2.57,2.57-4.06,4h7.67c1.46-1.49,2.78-2.82,3.94-4,3.83-3.88,6.07-6.12,6.71-6.7,1.57-1.44,3.02-2.68,4.34-3.73,1.21-.97,2.32-1.77,3.33-2.4l-2.59-6.13ZM90.19,57.66c0,.4,0,.82,0,1.27v3.71h11.63c1.61-1.95,2.91-3.6,3.98-4.98h-15.6Z"/>
      <g>
        <path d="M153.39,126.9v2.36h-41.09v-2.36c2.46,0,4.24-.41,5.32-1.23,1.08-.83,1.63-1.75,1.63-2.77s-.21-1.92-.61-2.73c-.4-.8-1.73-2.31-3.98-4.51l-26.27-25.92-3.54-3.49v27.76c0,4.36.27,7.24.83,8.64.42,1.06,1.31,1.97,2.67,2.73,1.83,1.02,3.76,1.52,5.8,1.52h2.93v2.36h-36.82v-2.36h3.06c3.57,0,6.16-1.03,7.77-3.11,1.02-1.35,1.53-4.61,1.53-9.78v-55.64c0-4.36-.28-7.26-.83-8.7-.42-1.02-1.29-1.91-2.61-2.67-1.87-1.02-3.82-1.53-5.86-1.53h-3.06v-2.35h36.82v2.35h-2.93c-.11,0-.22,0-.33.01-1.67.04-3.3.43-4.88,1.16-.2.09-.39.19-.59.29-1.31.68-2.23,1.7-2.74,3.05-.41,1.08-.65,3.07-.72,5.98-.02.36-.03.74-.03,1.14-.01.41-.01.83-.01,1.27v26.36c.85-.81,3.76-3.5,8.73-8.07,4.37-3.99,8.13-7.51,11.29-10.58,1.49-1.43,2.84-2.77,4.06-4,1.87-1.9,3.44-3.55,4.7-4.98.63-.71,1.19-1.37,1.66-1.96.46-.57.84-1.08,1.15-1.54,1.15-1.69,1.72-3.17,1.72-4.44,0-.98-.44-1.83-1.34-2.57-.89-.75-2.4-1.12-4.52-1.12h-1.97v-2.35h31.72v2.35c-1.87.05-3.57.3-5.1.77-1.53.46-3.4,1.36-5.6,2.7-.16.1-.32.2-.49.31-1.01.63-2.12,1.43-3.33,2.4-1.32,1.05-2.77,2.29-4.34,3.73-.64.58-2.88,2.82-6.71,6.7-1.16,1.18-2.48,2.51-3.94,4-.72.73-1.48,1.51-2.28,2.32l-13.18,13.09,31.85,31.57c5.22,5.21,9.68,8.75,13.37,10.64,3.7,1.88,7.39,2.95,11.09,3.2Z"/>
        <path d="M142.3,123.7c-3.69-1.89-8.15-5.43-13.37-10.64l-31.85-31.57,13.18-13.09c.8-.81,1.56-1.59,2.28-2.32,1.46-1.49,2.78-2.82,3.94-4,3.83-3.88,6.07-6.12,6.71-6.7,1.57-1.44,3.02-2.68,4.34-3.73,1.21-.97,2.32-1.77,3.33-2.4.17-.11.33-.21.49-.31,2.2-1.34,4.07-2.24,5.6-2.7,1.53-.47,3.23-.72,5.1-.77v-2.35h-31.72v2.35h1.97c2.12,0,3.63.37,4.52,1.12.9.74,1.34,1.59,1.34,2.57,0,1.27-.57,2.75-1.72,4.44-.31.46-.69.97-1.15,1.54-.47.59-1.03,1.25-1.66,1.96-1.26,1.43-2.83,3.08-4.7,4.98-1.22,1.23-2.57,2.57-4.06,4-3.16,3.07-6.92,6.59-11.29,10.58-4.97,4.57-7.88,7.26-8.73,8.07v-26.36c0-.44,0-.86.01-1.27,0-.4.01-.78.03-1.14.07-2.91.31-4.9.72-5.98.51-1.35,1.43-2.37,2.74-3.05.2-.1.39-.2.59-.29,1.58-.73,3.21-1.12,4.88-1.16.11-.01.22-.01.33-.01h2.93v-2.35h-36.82v2.35h3.06c2.04,0,3.99.51,5.86,1.53,1.32.76,2.19,1.65,2.61,2.67.55,1.44.83,4.34.83,8.7v55.64c0,5.17-.51,8.43-1.53,9.78-1.61,2.08-4.2,3.11-7.77,3.11h-3.06v2.36h36.82v-2.36h-2.93c-2.04,0-3.97-.5-5.8-1.52-1.36-.76-2.25-1.67-2.67-2.73-.56-1.4-.83-4.28-.83-8.64v-27.76l3.54,3.49,26.27,25.92c2.25,2.2,3.58,3.71,3.98,4.51.4.81.61,1.72.61,2.73s-.55,1.94-1.63,2.77c-1.08.82-2.86,1.23-5.32,1.23v2.36h41.09v-2.36c-3.7-.25-7.39-1.32-11.09-3.2Z"/>
      </g>
    </g>
    <g>
      <path class="cls-1" d="M0,145.31v-6.39h2.39c.54,0,1.01.09,1.4.26.39.17.69.42.9.75.21.33.32.72.32,1.18s-.11.84-.32,1.16c-.21.33-.51.58-.9.75s-.86.26-1.4.26H.38l.3-.31v2.34h-.68ZM.68,143.02l-.3-.32h2c.64,0,1.12-.14,1.46-.42s.5-.67.5-1.18-.17-.91-.5-1.19-.82-.42-1.46-.42H.38l.3-.32v3.85ZM4.37,145.31l-1.64-2.32h.73l1.65,2.32h-.74Z"/>
      <path class="cls-1" d="M8.54,145.31l2.92-6.39h.67l2.92,6.39h-.71l-2.69-6h.27l-2.69,6h-.7ZM9.69,143.6l.2-.55h3.72l.2.55h-4.12Z"/>
      <path class="cls-1" d="M21.85,145.36c-.48,0-.93-.08-1.33-.24-.41-.16-.76-.39-1.06-.68-.3-.29-.53-.64-.7-1.03-.17-.4-.25-.83-.25-1.3s.08-.9.25-1.3c.17-.4.4-.74.7-1.03.3-.29.66-.52,1.06-.68.41-.16.85-.24,1.33-.24s.9.08,1.31.23c.41.16.75.39,1.03.7l-.43.43c-.26-.27-.55-.46-.87-.58-.32-.12-.66-.18-1.02-.18-.38,0-.74.07-1.07.2-.33.13-.62.32-.86.56-.24.24-.43.52-.57.84-.14.32-.21.67-.21,1.05s.07.74.21,1.06c.14.32.33.6.57.84.24.24.53.43.86.56.33.13.69.2,1.07.2s.71-.06,1.02-.18.61-.32.87-.58l.43.43c-.28.31-.62.54-1.03.7-.41.16-.85.24-1.31.24ZM21.45,138.39l-1.18-1.13h.6l1.16.96h-.51l1.16-.96h.6l-1.18,1.13h-.66Z"/>
      <path class="cls-1" d="M31.17,145.36c-.82,0-1.46-.23-1.93-.7s-.7-1.16-.7-2.08v-3.66h.68v3.63c0,.76.17,1.31.51,1.67s.82.54,1.44.54,1.11-.18,1.45-.54.51-.92.51-1.67v-3.63h.66v3.66c0,.92-.23,1.61-.7,2.08s-1.11.7-1.92.7Z"/>
      <path class="cls-1" d="M38.79,145.31v-6.39h.56l4.41,5.55h-.29v-5.55h.67v6.39h-.56l-4.4-5.55h.29v5.55h-.68Z"/>
      <path class="cls-1" d="M51.97,145.36c-.48,0-.93-.08-1.34-.24-.41-.16-.77-.39-1.07-.68-.3-.3-.54-.64-.7-1.03-.17-.39-.25-.82-.25-1.29s.08-.9.25-1.29c.17-.39.4-.74.7-1.03.3-.29.66-.52,1.06-.68.41-.16.86-.24,1.34-.24s.93.08,1.33.24c.41.16.76.39,1.06.68.3.29.54.64.7,1.03.17.4.25.83.25,1.3s-.08.9-.25,1.3c-.17.4-.4.74-.7,1.03-.3.29-.66.52-1.06.68-.41.16-.85.24-1.33.24ZM51.97,144.76c.38,0,.74-.07,1.06-.2.33-.13.61-.32.85-.56s.43-.52.56-.84c.13-.32.2-.67.2-1.06s-.07-.73-.2-1.05c-.13-.32-.32-.6-.56-.84s-.52-.43-.85-.56c-.33-.13-.68-.2-1.06-.2s-.74.07-1.07.2-.62.32-.86.56c-.24.24-.43.52-.57.84-.13.32-.2.67-.2,1.05s.07.73.2,1.05c.13.32.32.6.57.84.24.24.53.43.86.56s.68.2,1.07.2Z"/>
      <path class="cls-1" d="M61.62,145.31l-2.83-6.39h.73l2.65,6.02h-.4l2.67-6.02h.69l-2.83,6.39h-.67Z"/>
      <path class="cls-1" d="M71.93,145.36c-.48,0-.93-.08-1.34-.24-.41-.16-.77-.39-1.07-.68-.3-.3-.54-.64-.7-1.03-.17-.39-.25-.82-.25-1.29s.08-.9.25-1.29c.17-.39.4-.74.7-1.03.3-.29.66-.52,1.06-.68.41-.16.86-.24,1.34-.24s.93.08,1.33.24c.41.16.76.39,1.06.68.3.29.54.64.7,1.03.17.4.25.83.25,1.3s-.08.9-.25,1.3c-.17.4-.4.74-.7,1.03-.3.29-.66.52-1.06.68-.41.16-.85.24-1.33.24ZM71.93,144.76c.38,0,.74-.07,1.06-.2.33-.13.61-.32.85-.56s.43-.52.56-.84c.13-.32.2-.67.2-1.06s-.07-.73-.2-1.05c-.13-.32-.32-.6-.56-.84s-.52-.43-.85-.56c-.33-.13-.68-.2-1.06-.2s-.74.07-1.07.2-.62.32-.86.56c-.24.24-.43.52-.57.84-.13.32-.2.67-.2,1.05s.07.73.2,1.05c.13.32.32.6.57.84.24.24.53.43.86.56s.68.2,1.07.2Z"/>
      <path class="cls-1" d="M79.76,145.31v-6.39h2.6c.68,0,1.28.14,1.79.41.51.27.91.65,1.2,1.13.29.48.43,1.04.43,1.66s-.14,1.18-.43,1.66c-.29.48-.69.86-1.2,1.13-.51.27-1.11.41-1.79.41h-2.6ZM80.43,144.72h1.89c.57,0,1.06-.11,1.48-.33s.74-.53.97-.92c.23-.39.35-.84.35-1.36s-.12-.97-.35-1.36-.56-.7-.97-.92-.91-.33-1.48-.33h-1.89v5.22Z"/>
      <path class="cls-1" d="M92.02,145.36c-.47,0-.93-.08-1.37-.23s-.77-.36-1.01-.6l.26-.52c.22.22.53.4.91.55.38.15.78.22,1.2.22s.73-.05.98-.15c.25-.1.44-.24.56-.41.12-.17.18-.36.18-.57,0-.25-.07-.45-.21-.6-.14-.15-.33-.27-.56-.36-.23-.09-.49-.17-.77-.23-.28-.07-.56-.14-.84-.21-.28-.08-.54-.18-.77-.31s-.42-.3-.57-.51c-.14-.21-.21-.49-.21-.83,0-.32.08-.61.25-.87.17-.26.42-.48.77-.64.35-.16.79-.24,1.33-.24.36,0,.71.05,1.07.15s.66.24.91.42l-.23.54c-.27-.18-.56-.32-.87-.4s-.6-.13-.89-.13c-.38,0-.7.05-.95.16-.25.1-.43.24-.55.42-.12.17-.18.37-.18.59,0,.25.07.45.21.6.14.15.33.27.57.36s.49.16.77.23c.28.07.56.14.84.22s.53.18.77.31c.23.12.42.29.57.5.14.21.21.48.21.81,0,.31-.08.6-.25.86-.17.26-.43.48-.78.64-.35.16-.8.24-1.35.24Z"/>
      <path class="cls-1" d="M100.08,145.31v-5.81h-2.25v-.58h5.17v.58h-2.25v5.81h-.68Z"/>
      <path class="cls-1" d="M108.86,145.31l-2.83-6.39h.73l2.65,6.02h-.4l2.67-6.02h.69l-2.83,6.39h-.67Z"/>
      <path class="cls-1" d="M117.05,144.72h3.85v.58h-4.52v-6.39h4.38v.58h-3.71v5.22ZM116.98,141.77h3.38v.58h-3.38v-.58Z"/>
      <path class="cls-1" d="M125.44,145.31v-6.39h.56l4.41,5.55h-.29v-5.55h.67v6.39h-.56l-4.4-5.55h.29v5.55h-.68Z"/>
      <path class="cls-1" d="M134.8,145.31l2.92-6.39h.67l2.92,6.39h-.71l-2.69-6h.27l-2.69,6h-.7ZM135.96,143.6l.2-.55h3.72l.2.55h-4.12Z"/>
      <path class="cls-1" d="M149.67,145.31l2.92-6.39h.67l2.92,6.39h-.71l-2.69-6h.27l-2.69,6h-.7ZM150.82,143.6l.2-.55h3.72l.2.55h-4.12Z"/>
      <path class="cls-1" d="M163,145.36c-.49,0-.94-.08-1.35-.24-.41-.16-.77-.39-1.07-.68-.3-.29-.54-.64-.7-1.03-.17-.4-.25-.83-.25-1.3s.08-.9.25-1.3c.17-.4.4-.74.71-1.03.3-.29.66-.52,1.07-.68.41-.16.86-.24,1.35-.24s.93.08,1.34.23.75.38,1.04.69l-.42.43c-.27-.27-.56-.46-.89-.58-.32-.12-.67-.17-1.04-.17-.4,0-.76.07-1.09.2s-.62.32-.87.56c-.25.24-.44.52-.58.84-.14.32-.21.67-.21,1.05s.07.73.21,1.05c.14.32.33.6.58.84.25.24.54.43.87.56s.69.2,1.08.2c.37,0,.71-.05,1.04-.17.33-.11.63-.29.9-.56l.38.51c-.3.27-.66.47-1.07.61-.41.14-.83.21-1.28.21ZM164.7,144.47v-2.36h.65v2.44l-.65-.08Z"/>
      <path class="cls-1" d="M170.89,144.72h3.85v.58h-4.52v-6.39h4.38v.58h-3.71v5.22ZM170.82,141.77h3.38v.58h-3.38v-.58Z"/>
      <path class="cls-1" d="M179.29,145.31v-6.39h.56l4.41,5.55h-.29v-5.55h.67v6.39h-.56l-4.4-5.55h.29v5.55h-.68Z"/>
      <path class="cls-1" d="M192.45,145.36c-.48,0-.93-.08-1.33-.24-.41-.16-.76-.39-1.06-.68-.3-.29-.53-.64-.7-1.03-.17-.4-.25-.83-.25-1.3s.08-.9.25-1.3c.17-.4.4-.74.7-1.03.3-.29.66-.52,1.06-.68.41-.16.85-.24,1.33-.24s.9.08,1.31.23c.41.16.75.39,1.03.7l-.43.43c-.26-.27-.55-.46-.87-.58-.32-.12-.66-.18-1.02-.18-.38,0-.74.07-1.07.2-.33.13-.62.32-.86.56-.24.24-.43.52-.57.84-.14.32-.21.67-.21,1.05s.07.74.21,1.06c.14.32.33.6.57.84.24.24.53.43.86.56.33.13.69.2,1.07.2s.71-.06,1.02-.18.61-.32.87-.58l.43.43c-.28.31-.62.54-1.03.7-.41.16-.85.24-1.31.24Z"/>
      <path class="cls-1" d="M199.2,145.31v-6.39h.68v6.39h-.68Z"/>
      <path class="cls-1" d="M205.6,145.36c-.36,0-.7-.08-1.01-.24s-.56-.38-.75-.68l.39-.46c.18.26.38.45.61.58s.49.2.77.2c.79,0,1.19-.47,1.19-1.41v-3.87h-2.34v-.58h3v4.43c0,.68-.16,1.18-.47,1.52s-.78.5-1.39.5Z"/>
      <path class="cls-1" d="M211.43,145.31l2.92-6.39h.67l2.92,6.39h-.71l-2.69-6h.27l-2.69,6h-.7ZM212.58,143.6l.2-.55h3.72l.2.55h-4.12Z"/>
    </g>
    <g>
      <path class="cls-1" d="M81.8,161.34v-8.29h1.91v8.29h-1.91ZM83.51,159.45l-.09-2.21,3.97-4.18h2.13l-3.56,3.85-1.09,1.14-1.35,1.41ZM87.48,161.34l-2.95-3.6,1.25-1.37,3.94,4.97h-2.25Z"/>
      <path class="cls-1" d="M98.43,161.48c-.66,0-1.26-.11-1.81-.32-.55-.21-1.03-.51-1.45-.9-.41-.39-.73-.84-.95-1.36-.22-.52-.34-1.09-.34-1.71s.11-1.19.34-1.71c.23-.52.54-.97.95-1.36.41-.39.89-.69,1.44-.9.55-.21,1.15-.32,1.81-.32s1.26.1,1.81.31c.55.21,1.03.51,1.44.89.41.39.73.84.95,1.36.22.52.34,1.09.34,1.72s-.11,1.19-.34,1.71c-.23.53-.54.98-.95,1.37-.41.39-.89.68-1.44.89-.55.21-1.15.31-1.79.31ZM98.42,159.86c.37,0,.71-.06,1.02-.2.31-.13.59-.32.82-.56.24-.24.42-.52.55-.84.13-.32.2-.68.2-1.07s-.07-.75-.2-1.07-.31-.6-.55-.84c-.24-.24-.51-.43-.82-.56-.31-.13-.65-.2-1.02-.2s-.71.07-1.03.2c-.32.13-.59.32-.82.56-.23.24-.41.52-.54.84-.13.32-.2.68-.2,1.07s.07.75.2,1.07c.13.32.31.6.54.84.23.24.51.43.82.56.32.13.66.2,1.03.2Z"/>
      <path class="cls-1" d="M107.7,161.34v-1.24l5.13-6.18.24.7h-5.27v-1.56h6.97v1.24l-5.12,6.18-.24-.7h5.53v1.56h-7.25Z"/>
      <path class="cls-1" d="M120.01,161.34v-8.29h1.93v8.29h-1.93Z"/>
      <path class="cls-1" d="M131.7,161.48c-.64,0-1.23-.1-1.78-.31s-1.02-.51-1.43-.89c-.4-.39-.72-.84-.94-1.36-.22-.52-.34-1.09-.34-1.72s.11-1.2.34-1.72c.23-.52.54-.97.95-1.36.41-.39.88-.68,1.43-.89.55-.21,1.14-.31,1.78-.31.72,0,1.37.12,1.95.37s1.07.61,1.47,1.1l-1.24,1.14c-.28-.32-.59-.57-.94-.73-.35-.17-.73-.25-1.14-.25-.39,0-.74.07-1.07.2-.32.13-.6.31-.84.55-.24.24-.42.52-.55.84-.13.32-.2.68-.2,1.08s.07.75.2,1.08c.13.32.31.6.55.84.24.24.52.42.84.55.32.13.68.2,1.07.2.41,0,.79-.08,1.14-.25.35-.17.67-.42.94-.74l1.24,1.14c-.39.48-.88.85-1.47,1.1-.58.25-1.24.38-1.97.38ZM130.57,152.38l1.6-1.71h1.98l-2.13,1.71h-1.45Z"/>
    </g>
  </g>
</svg>