<?xml version="1.0" encoding="UTF-8"?>
<svg id="Layer_2" data-name="Layer 2" xmlns="http://www.w3.org/2000/svg" viewBox="0 0 97 130">
  <defs>
    <style>
      .cls-1 {
      fill: #444342;
      }
    </style>
  </defs>
  <g id="Layer_1-2" data-name="Layer 1">
    <g transform="translate(-56, 0)">
      <path
        d="M105.47,0h-2.27l-16.35,37.46h6.14l7.82-17.78,7.62,17.78h13.04L105.47,0ZM62.4,89.35c-.94.79-3,1.43-6.2,1.93v1.83h11.01v-10.36c-1.72,3.18-3.33,5.38-4.81,6.6ZM144.55,87.1c-2.11-1.82-4.46-5.78-7.05-11.88l-8.35-19.73c-1.01.83-2.09,1.78-3.25,2.84-.38.34-1.78,1.7-6.64,6.63l4.35,10.26c1.82,4.26,2.73,7.38,2.73,9.36,0,1.48-.65,2.74-1.94,3.77-1.3,1.03-3.78,1.64-7.46,1.82v2.49h36.43v-2.49c-3.77-.23-6.71-1.25-8.82-3.07ZM79.66,43.12l-7.04,16.3v37.24h12.23v-10.41l3.54,3.49v-3.3l-3.71-.26c-5.24-.37-6.45-1.18-6.49-1.21-.35-.27-.47-.46-.49-.53,0-.54.2-2.24,1.99-6.35l5.16-11.87v-7.85c0-.44,0-.86.01-1.27,0-.4.01-.78.03-1.14.07-2.91.31-4.9.72-5.98.51-1.35,1.43-2.37,2.74-3.05.2-.1.39-.2.59-.29,1.58-.73,3.21-1.12,4.88-1.16l1.03-2.36h-15.19ZM128.27,43.12h-17.94v2.35h1.97c2.12,0,3.63.37,4.52,1.12.9.74,1.34,1.59,1.34,2.57,0,1.27-.57,2.75-1.72,4.44-.31.46-.69.97-1.15,1.54-.47.59-1.03,1.25-1.66,1.96-1.26,1.43-2.83,3.08-4.7,4.98-1.22,1.23-2.57,2.57-4.06,4h7.67c1.46-1.49,2.78-2.82,3.94-4,3.83-3.88,6.07-6.12,6.71-6.7,1.57-1.44,3.02-2.68,4.34-3.73,1.21-.97,2.32-1.77,3.33-2.4l-2.59-6.13ZM90.19,57.66c0,.4,0,.82,0,1.27v3.71h11.63c1.61-1.95,2.91-3.6,3.98-4.98h-15.6Z" />
      <g>
        <path
          d="M153.39,126.9v2.36h-41.09v-2.36c2.46,0,4.24-.41,5.32-1.23,1.08-.83,1.63-1.75,1.63-2.77s-.21-1.92-.61-2.73c-.4-.8-1.73-2.31-3.98-4.51l-26.27-25.92-3.54-3.49v27.76c0,4.36.27,7.24.83,8.64.42,1.06,1.31,1.97,2.67,2.73,1.83,1.02,3.76,1.52,5.8,1.52h2.93v2.36h-36.82v-2.36h3.06c3.57,0,6.16-1.03,7.77-3.11,1.02-1.35,1.53-4.61,1.53-9.78v-55.64c0-4.36-.28-7.26-.83-8.7-.42-1.02-1.29-1.91-2.61-2.67-1.87-1.02-3.82-1.53-5.86-1.53h-3.06v-2.35h36.82v2.35h-2.93c-.11,0-.22,0-.33.01-1.67.04-3.3.43-4.88,1.16-.2.09-.39.19-.59.29-1.31.68-2.23,1.7-2.74,3.05-.41,1.08-.65,3.07-.72,5.98-.02.36-.03.74-.03,1.14-.01.41-.01.83-.01,1.27v26.36c.85-.81,3.76-3.5,8.73-8.07,4.37-3.99,8.13-7.51,11.29-10.58,1.49-1.43,2.84-2.77,4.06-4,1.87-1.9,3.44-3.55,4.7-4.98.63-.71,1.19-1.37,1.66-1.96.46-.57.84-1.08,1.15-1.54,1.15-1.69,1.72-3.17,1.72-4.44,0-.98-.44-1.83-1.34-2.57-.89-.75-2.4-1.12-4.52-1.12h-1.97v-2.35h31.72v2.35c-1.87.05-3.57.3-5.1.77-1.53.46-3.4,1.36-5.6,2.7-.16.1-.32.2-.49.31-1.01.63-2.12,1.43-3.33,2.4-1.32,1.05-2.77,2.29-4.34,3.73-.64.58-2.88,2.82-6.71,6.7-1.16,1.18-2.48,2.51-3.94,4-.72.73-1.48,1.51-2.28,2.32l-13.18,13.09,31.85,31.57c5.22,5.21,9.68,8.75,13.37,10.64,3.7,1.88,7.39,2.95,11.09,3.2Z" />
        <path
          d="M142.3,123.7c-3.69-1.89-8.15-5.43-13.37-10.64l-31.85-31.57,13.18-13.09c.8-.81,1.56-1.59,2.28-2.32,1.46-1.49,2.78-2.82,3.94-4,3.83-3.88,6.07-6.12,6.71-6.7,1.57-1.44,3.02-2.68,4.34-3.73,1.21-.97,2.32-1.77,3.33-2.4.17-.11.33-.21.49-.31,2.2-1.34,4.07-2.24,5.6-2.7,1.53-.47,3.23-.72,5.1-.77v-2.35h-31.72v2.35h1.97c2.12,0,3.63.37,4.52,1.12.9.74,1.34,1.59,1.34,2.57,0,1.27-.57,2.75-1.72,4.44-.31.46-.69.97-1.15,1.54-.47.59-1.03,1.25-1.66,1.96-1.26,1.43-2.83,3.08-4.7,4.98-1.22,1.23-2.57,2.57-4.06,4-3.16,3.07-6.92,6.59-11.29,10.58-4.97,4.57-7.88,7.26-8.73,8.07v-26.36c0-.44,0-.86.01-1.27,0-.4.01-.78.03-1.14.07-2.91.31-4.9.72-5.98.51-1.35,1.43-2.37,2.74-3.05.2-.1.39-.2.59-.29,1.58-.73,3.21-1.12,4.88-1.16.11-.01.22-.01.33-.01h2.93v-2.35h-36.82v2.35h3.06c2.04,0,3.99.51,5.86,1.53,1.32.76,2.19,1.65,2.61,2.67.55,1.44.83,4.34.83,8.7v55.64c0,5.17-.51,8.43-1.53,9.78-1.61,2.08-4.2,3.11-7.77,3.11h-3.06v2.36h36.82v-2.36h-2.93c-2.04,0-3.97-.5-5.8-1.52-1.36-.76-2.25-1.67-2.67-2.73-.56-1.4-.83-4.28-.83-8.64v-27.76l3.54,3.49,26.27,25.92c2.25,2.2,3.58,3.71,3.98,4.51.4.81.61,1.72.61,2.73s-.55,1.94-1.63,2.77c-1.08.82-2.86,1.23-5.32,1.23v2.36h41.09v-2.36c-3.7-.25-7.39-1.32-11.09-3.2Z" />
      </g>
    </g>
  </g>
</svg>